Coordinates
version=1
nRows=19
nColumns=24
inDegrees=yes

Units are S.I. units (second, meters, Newtons, ...)
Angles are in degrees.

endheader
time	pelvis_tilt	pelvis_list	pelvis_rotation	pelvis_tx	pelvis_ty	pelvis_tz	hip_flexion_r	hip_adduction_r	hip_rotation_r	knee_angle_r	ankle_angle_r	subtalar_angle_r	mtp_angle_r	hip_flexion_l	hip_adduction_l	hip_rotation_l	knee_angle_l	ankle_angle_l	subtalar_angle_l	mtp_angle_l	lumbar_extension	lumbar_bending	lumbar_rotation
      0.58400000	     -6.59235655	      3.70521631	      6.89371525	     -0.83698644	      0.99477513	      0.26264341	     34.05727746	     -3.20066295	    -12.56314750	     -1.54905808	      4.37375028	      6.37297088	     13.76429377	    -10.67016244	      8.16396315	      5.77012855	     -3.94555424	     13.82822032	     -0.32892321	      3.14603883	      0.86227426	     -7.95256644	     -8.49556062
      0.58816667	     -6.53712357	      3.60292174	      6.87144481	     -0.83085356	      0.99411681	      0.26266919	     34.07346660	     -3.01396433	    -12.08423124	     -2.32395287	      4.36397297	      5.62955531	     13.59824079	    -10.89586799	      8.02209526	      5.58283683	     -4.33599016	     14.00773606	     -0.04375161	      2.93840774	      0.90611175	     -7.81547629	     -8.35053457
      0.59233333	     -6.46826990	      3.48127118	      6.85562153	     -0.82460926	      0.99351098	      0.26266423	     34.06689911	     -2.81380955	    -11.64637174	     -3.13213296	      4.41732032	      5.01346195	     13.49466005	    -11.18276498	      7.86108361	      5.58535222	     -4.64293439	     14.09607721	     -0.00231598	      2.81351765	      0.94967163	     -7.63049099	     -8.38333154
      0.59650000	     -6.40193751	      3.34963505	      6.85686834	     -0.81835195	      0.99294473	      0.26267397	     34.03451740	     -2.59958735	    -11.17046091	     -3.89305832	      4.28009683	      4.15676778	     13.35858475	    -11.42920604	      7.68651741	      5.53216313	     -5.02080880	     14.14163174	      0.01084733	      2.66761880	      0.97500801	     -7.45402089	     -8.38455525
      0.60066667	     -6.33669438	      3.21792698	      6.84697553	     -0.81202499	      0.99240005	      0.26271434	     33.99279689	     -2.37324154	    -10.66387206	     -4.65008073	      4.12572803	      3.31870467	     13.22815669	    -11.68430188	      7.51349609	      5.50318321	     -5.38561949	     14.16346599	      0.01863152	      2.54507590	      1.02198574	     -7.27116065	     -8.39148996
      0.60483333	     -6.27271914	      3.07878076	      6.82795349	     -0.80562526	      0.99188253	      0.26278387	     33.93731909	     -2.12695708	    -10.12855129	     -5.38536460	      3.93738014	      2.47524294	     13.12838290	    -11.94771149	      7.33332619	      5.48869328	     -5.72609801	     14.16077779	      0.03440850	      2.46481421	      1.08873733	     -7.07212657	     -8.41191137
      0.60900000	     -6.20319004	      2.93416936	      6.82286426	     -0.79919231	      0.99141724	      0.26285442	     33.85533036	     -1.87464207	     -9.60630067	     -6.07498344	      3.61736664	      1.54291701	     13.02854784	    -12.19185096	      7.14385441	      5.45103644	     -6.11965629	     14.12286932	      0.02401647	      2.40060763	      1.14350093	     -6.87837675	     -8.42345573
      0.61316667	     -6.15675302	      2.78574440	      6.82766231	     -0.79271667	      0.99096606	      0.26294220	     33.78200391	     -1.61837571	     -9.09070648	     -6.72793773	      3.21352798	      0.59650259	     12.93023948	    -12.39901978	      6.94930397	      5.41277254	     -6.54151297	     14.06796359	      0.02898458	      2.35372201	      1.23649495	     -6.68912263	     -8.44204497
      0.61733333	     -6.10480608	      2.63615454	      6.82602685	     -0.78619672	      0.99056081	      0.26306092	     33.69111110	     -1.35127078	     -8.57367347	     -7.34662470	      2.74852674	     -0.35380185	     12.84286547	    -12.60626863	      6.75296738	      5.37662803	     -6.96780412	     13.96294903	      0.02035820	      2.33157317	      1.32810778	     -6.49457671	     -8.46150610
      0.62150000	     -6.05125926	      2.48662756	      6.83794935	     -0.77964649	      0.99020234	      0.26319467	     33.58324609	     -1.08592160	     -8.08359133	     -7.92517444	      2.19764546	     -1.32500641	     12.74618788	    -12.79914701	      6.55144033	      5.35150986	     -7.43129331	     13.84572742	      0.01421398	      2.33134829	      1.41385623	     -6.32077225	     -8.47258137
      0.62566667	     -6.01880156	      2.32247025	      6.84471571	     -0.77302409	      0.98985682	      0.26334308	     33.48450669	     -0.80270742	     -7.60505016	     -8.46454186	      1.57332606	     -2.26769229	     12.67227166	    -12.96998433	      6.33650848	      5.32234409	     -7.88494045	     13.67309734	      0.00648083	      2.35415210	      1.55066496	     -6.10801193	     -8.50195938
      0.62983333	     -5.99291115	      2.15980378	      6.86253672	     -0.76637724	      0.98955495	      0.26349894	     33.38336641	     -0.52686221	     -7.16630667	     -8.97528145	      0.88926964	     -3.19294534	     12.60931631	    -13.10851868	      6.12055537	      5.29743018	     -8.38885895	     13.47600930	     -0.00753803	      2.40080272	      1.68948164	     -5.91293020	     -8.52736580
      0.63400000	     -5.96742978	      2.00767652	      6.89281304	     -0.75972475	      0.98929557	      0.26367358	     33.27300130	     -0.26356329	     -6.73757490	     -9.45618725	      0.16815492	     -4.14005926	     12.54840370	    -13.22819556	      5.91042260	      5.28006782	     -8.93019776	     13.26183877	     -0.03041419	      2.48939554	      1.82804666	     -5.75054540	     -8.55112562
      0.63816667	     -5.96105815	      1.83854209	      6.92222493	     -0.75300242	      0.98906512	      0.26383981	     33.17473697	      0.00841132	     -6.36371956	     -9.91390224	     -0.61656143	     -4.96582424	     12.50340415	    -13.31856576	      5.68474563	      5.27433075	     -9.47643414	     12.98296928	     -0.03268640	      2.58698216	      2.00865580	     -5.53572671	     -8.58382887
      0.64233333	     -5.94292117	      1.68032248	      6.95707301	     -0.74628563	      0.98888872	      0.26403560	     33.05964520	      0.26956152	     -6.00652854	    -10.35491754	     -1.41046067	     -5.81328101	     12.46520770	    -13.40063040	      5.46424083	      5.26119653	    -10.06633923	     12.67396768	     -0.05717475	      2.71953634	      2.16499102	     -5.35851904	     -8.61028745
      0.64650000	     -5.92870735	      1.52722887	      7.00308309	     -0.73955551	      0.98876459	      0.26423433	     32.94474242	      0.51709190	     -5.68589672	    -10.78824236	     -2.20125879	     -6.63206063	     12.43102637	    -13.44285393	      5.24542123	      5.22959278	    -10.71897551	     12.34538925	     -0.08359128	      2.92101233	      2.33135483	     -5.21650351	     -8.64052061
      0.65066667	     -5.93738262	      1.36828148	      7.05490873	     -0.73279966	      0.98866163	      0.26442259	     32.85217210	      0.75829288	     -5.40397455	    -11.21710769	     -2.99476220	     -7.36432051	     12.40325754	    -13.44610157	      5.02078609	      5.21349204	    -11.39300107	     11.95853560	     -0.09934012	      3.16567636	      2.53204122	     -5.04563033	     -8.67318444
      0.65483333	     -5.93292356	      1.20763624	      7.10628269	     -0.72602542	      0.98862280	      0.26462916	     32.74453018	      0.99889108	     -5.15593113	    -11.64515209	     -3.76342031	     -8.04927036	     12.37932959	    -13.44389180	      4.78962085	      5.19329900	    -12.09562753	     11.53960163	     -0.10050366	      3.45352033	      2.71929842	     -4.87522118	     -8.70211027
      0.65900000	     -5.94143852	      1.04600916	      7.16734627	     -0.71923820	      0.98862503	      0.26483041	     32.65060168	      1.22811849	     -4.94448665	    -12.08023273	     -4.49142748	     -8.67537866	     12.35616718	    -13.39830985	      4.55422697	      5.16667878	    -12.84622999	     11.06195436	     -0.09877457	      3.78993113	      2.92452199	     -4.70890394	     -8.73354501
